<?xml version="1.0" encoding="utf-8"?>
<!-- Generator: Adobe Illustrator 26.0.0, SVG Export Plug-In . SVG Version: 6.00 Build 0)  -->
<svg version="1.1" id="Layer_1" xmlns="http://www.w3.org/2000/svg" xmlns:xlink="http://www.w3.org/1999/xlink" x="0px" y="0px"
	 viewBox="0 0 200 200" style="enable-background:new 0 0 200 200;" xml:space="preserve">
<style type="text/css">
	.st0{stroke:#422E2E;stroke-width:3;stroke-miterlimit:10;}
	.st1{fill:none;stroke:#FCFCFC;stroke-miterlimit:10;}
	.st2{fill:#501212;stroke:#000000;stroke-miterlimit:10;}
	.st3{fill:#7C3C3C;stroke:#000000;stroke-miterlimit:10;}
	.st4{fill:#350B0B;stroke:#000000;stroke-miterlimit:10;}
	.st5{opacity:0.2;fill:url(#SVGID_1_);}
	.st6{opacity:0.2;fill:url(#SVGID_00000140004755208099018620000008134235388576255885_);}
	.st7{fill:url(#SVGID_00000140703258660608318300000000291903153707943566_);}
	.st8{fill:none;stroke:#000000;stroke-miterlimit:10;}
	.st9{opacity:0.2;fill:url(#SVGID_00000026141677658823007410000002620350734823571889_);}
	.st10{opacity:0.28;fill:#350B0B;}
	.st11{opacity:0.4;fill:url(#SVGID_00000022528319891041862920000003605427099125848471_);}
	.st12{opacity:0.16;fill:#350B0B;}
	.st13{opacity:0.1;fill:#B58D8D;}
	.st14{fill:#FFFDFD;}
	.st15{opacity:0.07;fill:#FFFDFD;}
	.st16{fill:#501212;stroke:#FFFFFF;stroke-width:0.1;stroke-miterlimit:10;}
</style>
<g>
	<path class="st0" d="M-1444.78,294.38c0,0-76.91,55.75-12.23,176.01c7.43,13.82,17.32,26.22,29.07,36.84
		c31.6,28.58,96.2,76.77,139.32,33.04c1.2-1.22,2.55-2.29,3.91-3.34c15.2-11.84,59.33-97.7-26.68-192.53
		C-1320.88,334.09-1378.13,259.58-1444.78,294.38z"/>
	<path class="st0" d="M-1454.18,265.2c-19.47,4.23-36.32,16.58-45.76,33.64c-20.3,36.65-40.23,106.93,27.74,193.95
		c11.48,15.83,92.52,115.97,180.55,96.53c0.07-0.02,0.14-0.03,0.21-0.05c16.91-3.77,31.79-14.06,41.32-28.18
		c18.61-27.58,35.48-82.21-7.62-170.75c-0.43-0.88-0.89-1.76-1.36-2.62c-9.53-17.35-76.86-146.63-166.15-127.19
		C-1435.1,262.24-1432.07,260.4-1454.18,265.2z"/>
	<path class="st0" d="M-1295.96,591.55c0,0,14.81,189.96-162.41,311.83c-18.38,12.63-158.57,82-274.7,56.53
		c-13.51-3.81-230.23-34.25-294.38-117c-4.07-4.43-8.41-10.01-12.61-15.85c-14.14-19.68-24.72-41.59-31.53-64.8l-6.52-22.21
		c0,0-19.54-42,11.46-158.88c1.51-5.71,3.48-11.33,5.91-16.77c14.04-31.47,37.2-71.45,46.62-87.38c2.61-4.41,5.37-8.73,8.3-12.96
		l60.84-88.07c3.99-5.77,8.27-11.35,12.85-16.72c16.24-19.04,56.06-63.78,90.74-87.22c44.81-30.28,257.7-108.32,362.98,3.16"/>
</g>
<g>
	<path class="st1" d="M-1357.19,325.64c-36.53-15.31-78.62,1.29-95.74,37c-13.7,28.58-20.9,75.18,14.63,141.24
		c7.43,13.82,17.32,26.22,29.07,36.84c31.49,28.48,95.75,76.44,138.88,33.49c1.13-1.12,3.1-2.81,4.35-3.79
		c15.2-11.84,59.33-97.7-26.68-192.53C-1298.63,371.45-1323.26,339.86-1357.19,325.64z"/>
	<path class="st1" d="M-1435.48,298.69c-19.47,4.23-36.32,16.58-45.76,33.64c-20.3,36.65-40.23,106.93,27.74,193.95
		c11.48,15.83,92.52,115.97,180.55,96.53c0.07-0.02,0.14-0.03,0.21-0.05c16.91-3.77,31.79-14.06,41.32-28.18
		c18.62-27.59,35.49-82.23-7.65-170.82c-0.42-0.86-0.86-1.71-1.33-2.55c-9.53-17.34-76.85-147.63-166.16-128.2
		C-1416,294.5-1413.36,293.89-1435.48,298.69z"/>
	<path class="st1" d="M-1277.26,625.05c0,0,14.81,189.96-162.41,311.83c-18.38,12.63-158.57,82-274.7,56.53
		c-13.51-3.81-230.23-34.25-294.38-117c-4.07-4.43-8.41-10.01-12.61-15.85c-14.14-19.68-24.72-41.59-31.53-64.8l-6.52-22.21
		c0,0-19.54-42,11.46-158.88c1.51-5.71,3.48-11.33,5.91-16.77c14.04-31.47,37.2-71.45,46.62-87.38c2.61-4.41,5.37-8.73,8.3-12.96
		l60.84-88.07c3.99-5.77,8.27-11.35,12.85-16.72c16.24-19.04,56.06-63.78,90.74-87.22c44.81-30.28,257.7-108.32,362.98,3.16"/>
</g>
<path class="st2" d="M-833.99-222.97c0,0,139.54,72.91,139.54,212.78s-158.16,280.29-158.16,280.29h-59.72
	c0,0-150.38-122.82-159.15-279.32c-8.77-156.5,139.6-214.29,139.6-214.29l-4.53-3.45c-1.86-1.41-3.5-3.1-4.81-5.05
	c-1.42-2.34-2-5.66,1.67-6.87c0.67-0.22,1.38-0.3,2.08-0.3h108.5c2.01,0,3.98,0.69,5.47,2.05c1.72,1.71,0.94,4.16-1.19,6.86
	c-0.62,0.75-1.21,1.29-1.85,1.84L-833.99-222.97z"/>
<path class="st3" d="M-727.66-218.65c0,0,139.54,72.91,139.54,212.78s-158.16,280.29-158.16,280.29H-806
	c0,0-150.38-122.82-159.15-279.32s139.6-214.29,139.6-214.29l-4.53-3.45c-1.86-1.41-3.5-3.1-4.81-5.05c-1.42-2.34-2-5.66,1.67-6.87
	c0.67-0.22,1.38-0.3,2.08-0.3l108.5,0c2.01,0,3.98,0.69,5.47,2.05c1.72,1.71,0.94,4.16-1.19,6.86c-0.62,0.75-1.21,1.29-1.85,1.84
	L-727.66-218.65z"/>
<path class="st4" d="M-665.04-222.97c0,0,139.54,72.91,139.54,212.78s-158.16,280.29-158.16,280.29h-59.72
	c0,0-150.38-122.82-159.15-279.32s139.6-214.29,139.6-214.29l-4.53-3.45c-1.86-1.41-3.5-3.1-4.81-5.05c-1.42-2.34-2-5.66,1.67-6.87
	c0.67-0.22,1.38-0.3,2.08-0.3h108.5c2.01,0,3.98,0.69,5.47,2.05c1.72,1.71,0.94,4.16-1.19,6.86c-0.62,0.75-1.21,1.29-1.85,1.84
	L-665.04-222.97z"/>
<linearGradient id="SVGID_1_" gradientUnits="userSpaceOnUse" x1="521.7939" y1="420.6538" x2="526.3209" y2="420.6538">
	<stop  offset="0" style="stop-color:#501212"/>
	<stop  offset="0.0854" style="stop-color:#642525"/>
	<stop  offset="0.1873" style="stop-color:#763636"/>
	<stop  offset="0.2617" style="stop-color:#7C3C3C"/>
	<stop  offset="0.4009" style="stop-color:#642B2B"/>
	<stop  offset="0.5846" style="stop-color:#4A1A1A"/>
	<stop  offset="0.7509" style="stop-color:#3A0F0F"/>
	<stop  offset="0.8827" style="stop-color:#350B0B"/>
</linearGradient>
<path class="st5" d="M522.27,419.95c-0.32-0.52-0.54-1.16-0.46-1.73c0.01-0.07,0.03-0.14,0.05-0.22c0.08,0.34,0.23,0.67,0.42,0.97
	c0.57,0.84,1.28,1.57,2.09,2.18l1.96,1.5c0,0-0.14,0.05-0.42,0.17l0.42,0.32c0,0-0.14,0.05-0.42,0.17l-0.42-0.32l-1.13-0.86
	C523.55,421.52,522.84,420.79,522.27,419.95z"/>
<linearGradient id="SVGID_00000178896525967550419270000009535158534843642538_" gradientUnits="userSpaceOnUse" x1="568.7922" y1="420.9007" x2="573.7523" y2="420.9007">
	<stop  offset="0" style="stop-color:#501212"/>
	<stop  offset="0.0854" style="stop-color:#642525"/>
	<stop  offset="0.1873" style="stop-color:#763636"/>
	<stop  offset="0.2617" style="stop-color:#7C3C3C"/>
	<stop  offset="0.4009" style="stop-color:#642B2B"/>
	<stop  offset="0.5846" style="stop-color:#4A1A1A"/>
	<stop  offset="0.7509" style="stop-color:#3A0F0F"/>
	<stop  offset="0.8827" style="stop-color:#350B0B"/>
</linearGradient>
<path style="opacity:0.2;fill:url(#SVGID_00000178896525967550419270000009535158534843642538_);" d="M568.79,423.37l0.38-0.28
	c-0.25-0.14-0.38-0.21-0.38-0.21l3.24-2.36c0.28-0.24,0.54-0.47,0.8-0.8c0.42-0.53,0.71-1.04,0.85-1.5
	c0.02,0.07,0.04,0.15,0.06,0.23c0.11,0.65-0.25,1.42-0.9,2.25c-0.26,0.33-0.52,0.56-0.8,0.8l-2.47,1.8l-0.38,0.28h0
	C568.92,423.44,568.79,423.37,568.79,423.37z"/>
<g>
	
		<linearGradient id="SVGID_00000114054890659398432480000008824788129810894768_" gradientUnits="userSpaceOnUse" x1="60.7208" y1="120.5886" x2="167.7498" y2="120.5886" gradientTransform="matrix(0.6164 0.8475 -0.8488 0.6174 123.2567 -42.4045)">
		<stop  offset="0" style="stop-color:#501212"/>
		<stop  offset="0.0854" style="stop-color:#642525"/>
		<stop  offset="0.1873" style="stop-color:#763636"/>
		<stop  offset="0.2617" style="stop-color:#7C3C3C"/>
		<stop  offset="0.4009" style="stop-color:#642B2B"/>
		<stop  offset="0.5846" style="stop-color:#4A1A1A"/>
		<stop  offset="0.7509" style="stop-color:#3A0F0F"/>
		<stop  offset="0.8827" style="stop-color:#350B0B"/>
	</linearGradient>
	<path style="fill:url(#SVGID_00000114054890659398432480000008824788129810894768_);" d="M157.3,98.93c0,0,6.84,46.3-26.82,70.79
		s-95.12,11.06-95.12,11.06l-10.44-14.35c0,0,3.28-57.64,39.41-87.15s75.98-3.97,75.98-3.97l0.04-1.69
		c0.02-0.69,0.13-1.38,0.37-2.04c0.31-0.75,1.01-1.47,1.95-0.8c0.17,0.12,0.31,0.28,0.44,0.45l18.97,26.08
		c0.35,0.48,0.53,1.08,0.46,1.67c-0.11,0.71-0.84,0.95-1.86,0.92c-0.29-0.02-0.52-0.06-0.77-0.12L157.3,98.93z"/>
	<path class="st8" d="M131.15,168.82"/>
	<path class="st8" d="M79.16,97.33"/>
	
		<linearGradient id="SVGID_00000158026666869836917870000009718662469084166844_" gradientUnits="userSpaceOnUse" x1="97.4562" y1="48.6842" x2="131.4204" y2="48.6842" gradientTransform="matrix(0.6164 0.8475 -0.8488 0.6174 123.2567 -42.4045)">
		<stop  offset="0" style="stop-color:#501212"/>
		<stop  offset="0.0854" style="stop-color:#642525"/>
		<stop  offset="0.1873" style="stop-color:#763636"/>
		<stop  offset="0.2617" style="stop-color:#7C3C3C"/>
		<stop  offset="0.4009" style="stop-color:#642B2B"/>
		<stop  offset="0.5846" style="stop-color:#4A1A1A"/>
		<stop  offset="0.7509" style="stop-color:#3A0F0F"/>
		<stop  offset="0.8827" style="stop-color:#350B0B"/>
	</linearGradient>
	<path style="opacity:0.2;fill:url(#SVGID_00000158026666869836917870000009718662469084166844_);" d="M141.63,70.53
		c0.37-0.34,0.86-0.46,1.44-0.04c0.17,0.12,0.32,0.28,0.44,0.45l18.97,26.08c0.35,0.48,0.53,1.08,0.46,1.67
		c-0.05,0.33-0.23,0.56-0.52,0.71c-0.05,0.03-0.11,0.05-0.17,0.07c0.07-0.11,0.12-0.24,0.14-0.38c0.07-0.6-0.11-1.19-0.46-1.67
		l-18.97-26.08c-0.12-0.17-0.27-0.32-0.44-0.45c-0.39-0.28-0.73-0.32-1.03-0.21C141.54,70.62,141.59,70.57,141.63,70.53z"/>
	<path class="st10" d="M141.09,70.93c0.37-0.34,0.86-0.46,1.44-0.04c0.17,0.12,0.32,0.28,0.44,0.45l18.97,26.08
		c0.35,0.48,0.53,1.08,0.46,1.67c-0.05,0.33-0.23,0.56-0.52,0.71c-0.05,0.03-0.11,0.05-0.17,0.07c0.07-0.11,0.12-0.24,0.14-0.38
		c0.07-0.6-0.11-1.19-0.46-1.67l-18.97-26.08c-0.12-0.17-0.27-0.32-0.44-0.45c-0.39-0.28-0.73-0.32-1.03-0.21
		C141,71.01,141.04,70.97,141.09,70.93z"/>
	
		<linearGradient id="SVGID_00000060011763533150884040000018320371755346020523_" gradientUnits="userSpaceOnUse" x1="60.7206" y1="151.9512" x2="167.7498" y2="151.9512" gradientTransform="matrix(0.6164 0.8475 -0.8488 0.6174 123.2567 -42.4045)">
		<stop  offset="0" style="stop-color:#501212"/>
		<stop  offset="0.0854" style="stop-color:#642525"/>
		<stop  offset="0.1873" style="stop-color:#763636"/>
		<stop  offset="0.2617" style="stop-color:#7C3C3C"/>
		<stop  offset="0.4009" style="stop-color:#642B2B"/>
		<stop  offset="0.5846" style="stop-color:#4A1A1A"/>
		<stop  offset="0.7509" style="stop-color:#3A0F0F"/>
		<stop  offset="0.8827" style="stop-color:#350B0B"/>
	</linearGradient>
	<path style="opacity:0.4;fill:url(#SVGID_00000060011763533150884040000018320371755346020523_);" d="M129.96,170.09l-0.16,0.12
		c-33.67,24.49-95.12,11.06-95.12,11.06l-10.44-14.35c0,0,3.28-57.65,39.41-87.15c1.09-0.88,2.17-1.72,3.26-2.51
		c0.05-0.03,0.09-0.07,0.14-0.1c-0.96,0.7-1.91,1.44-2.86,2.21c-36.14,29.51-39.41,87.15-39.41,87.15l10.44,14.35
		c0,0,61.18,13.37,94.9-10.9C130.07,170.02,130.02,170.06,129.96,170.09z"/>
	<polygon class="st12" points="140.51,75.56 140.45,74.7 158.14,99.09 157.14,98.7 	"/>
	<path class="st13" d="M140.82,71.38l20.89,28.48c0,0-1.18,0.19-1.79-0.09c-0.62-0.28-19.51-26.83-19.51-26.83
		S140.68,71.34,140.82,71.38z"/>
</g>
<text transform="matrix(0.7616 0 0 1 -722.8057 116.2881)" style="font-family:'GALazi-Regular'; font-size:15.7561px;">ქართული</text>
<g>
	<path id="SVGID_x5F_00000003076660945407193770000013310194149017353393_x5F_" style="fill:none;" d="M-732.23-139.14
		c5.33,19.13,20.77,36.21,42.55,44.25s44.62,5.08,61.1-6"/>
	<text>	<textPath  xlink:href="#SVGID_x5F_00000003076660945407193770000013310194149017353393_x5F_" startOffset="43.5059%">
<tspan  class="st16" style="font-family:'GALazi-Regular'; font-size:21.8821px; letter-spacing:100;">ღვინო</tspan>	</textPath>
</text>
</g>
<g>
	<path id="SVGID_x5F_00000006690302875886593700000016051427106502269846_x5F_" style="fill:none;" d="M-766.38,28.92
		c6.17-19.63,8.16-41.77,44.55-53.83c33.89-11.23,52.59-1.06,79.92,24.2"/>
	<text>	<textPath  xlink:href="#SVGID_x5F_00000006690302875886593700000016051427106502269846_x5F_" startOffset="21.9837%">
<tspan  class="st16" style="font-family:'GALazi-Regular'; font-size:17.7724px; letter-spacing:25;">     ქართული ღვინო</tspan>	</textPath>
</text>
</g>
<g>
	<path class="st14" d="M47.43,103.62c0.12-0.1,0.28-0.23,0.47-0.39c0.69-1.37,2.55,0.04,2.55,0.04s2.07-0.15,2.65,0.92
		c0.36,0.66,1.15,0.23,1.7-0.19c0.39-0.3,0.93-0.36,1.38-0.14l1.74,0.83c0.13,0.06,0.26,0.14,0.37,0.22l2.18,1.61
		c0.43,0.32,0.93,0.54,1.46,0.65l2.34,0.48c0.49,0.1,0.95,0.3,1.35,0.59l1.25,0.89l3.33,1.88c0.42,0.24,0.9,0.37,1.39,0.38
		l3.39,0.05c0.25,0,0.5-0.04,0.74-0.12l1.78-0.61l1.19-0.44c0.74-0.27,1.58-0.1,2.14,0.45l1.3,1.26c0.49,0.47,1.31,0.29,1.54-0.34
		l0.01-0.02c0.06-0.15,0.24-0.22,0.38-0.14c0.63,0.36,2.23,1.28,3.06,1.76c0.34,0.2,0.63,0.47,0.84,0.8l0.8,1.26
		c0.33,0.53,0.84,0.92,1.44,1.12l4.43,1.46c0.38,0.13,0.75,0.31,1.08,0.54l0.9,0.64l0.65,0.45c0.77,0.53,0.94,1.57,0.39,2.31
		l-0.43,0.57c-0.2,0.26-0.03,0.63,0.3,0.67l1.5,0.19c0.13,0.02,0.26,0.01,0.39-0.01l3.27-0.53c0.28-0.04,0.54-0.15,0.76-0.31
		l1.59-1.14c0.33-0.24,0.73-0.36,1.13-0.36l1.08,0c0.44,0,0.84-0.26,1-0.66l0,0c0.07-0.18,0.25-0.29,0.45-0.29l0.26,0.01
		c0.36,0.01,0.7,0.18,0.93,0.46l1.06,1.32c0.36,0.44,1.04,0.45,1.4,0.01l0.49-0.59c0.26-0.31,0.61-0.52,1.01-0.59l0.25-0.05
		c0.46-0.08,0.93,0.06,1.25,0.38l3.19,3.16c0.45,0.44,1.06,0.7,1.7,0.71l3.02,0.05c0.58,0.01,1.16,0.14,1.69,0.39l1.55,0.73
		c0.32,0.15,0.44,0.53,0.26,0.83l-1.2,1.99c-0.21,0.34-0.58,0.55-0.99,0.54l-0.62-0.01c-0.31,0-0.56,0.24-0.56,0.53l0,0.25
		c0,0.42,0.2,0.81,0.55,1.05l1.26,0.88c0.53,0.37,1.16,0.57,1.81,0.58l0.06,0c0.29,0,0.57,0.15,0.73,0.39l0.46,0.66
		c0.19,0.28,0.51,0.44,0.85,0.45l2.21,0.04l1.24,0.02c0.5,0.01,0.95,0.29,1.17,0.72l0.58,1.15c0.21,0.4,0.13,0.89-0.2,1.21
		l-0.96,0.95c-0.23,0.23-0.52,0.37-0.84,0.43l-0.34,0.06c-0.59,0.1-1.03,0.58-1.06,1.17c-0.03,0.64-0.05,1.18,0.11,1.34
		c0.11,0.12,1.09,0.41,1.73,0.6c0.37,0.11,0.68,0.36,0.86,0.69l0.58,1.07c0.22,0.4,0.58,0.71,1.02,0.86l1.77,0.62
		c0.43,0.15,0.78,0.47,0.96,0.88l0.99,2.24c0.1,0.22,0.02,0.48-0.19,0.6l-0.58,0.35c-0.3,0.19-0.5,0.5-0.53,0.85l0,0
		c-0.03,0.28-0.27,0.5-0.56,0.49l-1.93-0.03c-0.44-0.01-0.88-0.08-1.31-0.21l-0.67-0.21c-0.47-0.15-0.85-0.48-1.06-0.92l-0.09-0.2
		c-0.13-0.28-0.41-0.46-0.72-0.47l-1.61-0.03c-0.46-0.01-0.91,0.08-1.33,0.27l-0.5,0.22c-0.29,0.13-0.62,0.13-0.91,0.01l-1.51-0.62
		c-0.33-0.14-0.64-0.33-0.9-0.57l-0.18-0.17c-0.2-0.18-0.31-0.45-0.29-0.72l0.07-1.09c0.01-0.19-0.14-0.35-0.33-0.35l-0.81-0.01
		l-1.91-0.03c-0.19,0-0.36-0.13-0.4-0.31l-0.21-0.84c-0.06-0.24-0.27-0.4-0.52-0.41l-1.04-0.02c-0.29,0-0.58,0.06-0.83,0.2
		l-0.62,0.33c-0.22,0.12-0.42,0.26-0.59,0.44l-2.04,2.06c-0.15,0.15-0.35,0.25-0.56,0.28l-2.52,0.33c-0.21,0.03-0.32,0.27-0.2,0.44
		l0.23,0.32c0.13,0.18-0.04,0.43-0.26,0.38l-1.7-0.42c-0.09-0.02-0.17-0.04-0.26-0.04l-0.64-0.05c-0.29-0.02-0.57,0.1-0.74,0.34l0,0
		c-0.15,0.21-0.37,0.37-0.63,0.44l-1.13,0.34c-0.47,0.14-0.98,0.05-1.37-0.24l-0.45-0.33c-0.15-0.11-0.31-0.2-0.48-0.26l-0.93-0.36
		c-0.35-0.14-0.74-0.14-1.09-0.01l0,0c-0.19,0.07-0.39,0.12-0.59,0.15l-1.71,0.24c-0.04,0.01-0.08,0.01-0.13,0.02l-1.17,0.23
		c-0.45,0.09-0.86,0.28-1.22,0.55l-0.93,0.72c-0.52,0.4-1.15,0.61-1.81,0.6l-0.92-0.01c-0.37-0.01-0.73-0.15-1-0.41l-0.76-0.74
		c-0.09-0.09-0.17-0.19-0.24-0.31l-0.06-0.1c-0.18-0.31-0.52-0.51-0.89-0.52l-0.66-0.01c-0.36-0.01-0.7-0.17-0.92-0.45l-0.78-0.96
		c-0.22-0.27-0.32-0.6-0.29-0.94l0.01-0.1c0.03-0.32-0.11-0.62-0.38-0.81l-2.1-1.51c-0.4-0.28-0.83-0.51-1.29-0.68l-1.08-0.39
		c-0.2-0.07-0.3-0.29-0.22-0.48l0.21-0.51c0.11-0.27-0.11-0.55-0.4-0.52l-2.15,0.23c-0.32,0.03-0.58,0.26-0.66,0.56l-0.43,1.63
		c-0.08,0.3-0.38,0.48-0.69,0.4l-3.5-0.83l-2.8-1.32c-0.34-0.16-0.74-0.09-1.01,0.16c-0.39,0.38-0.95,0.87-1.25,0.91
		c-0.36,0.05-2.47-0.59-3.62-0.96c-0.42-0.13-0.65-0.57-0.52-0.98l0.8-2.48c0.11-0.34,0.44-0.57,0.81-0.57l0,0
		c0.33,0.01,0.64-0.17,0.81-0.45l0.55-0.93c0.29-0.5,0.37-1.09,0.22-1.64l-1.25-4.51l-1.39-4.76l-1.16-6.01
		c-0.06-0.29-0.26-0.52-0.54-0.62l-2.37-0.81c-0.73-0.25-1.32-0.78-1.63-1.46l-0.55-1.19c-0.2-0.43-0.59-0.74-1.06-0.84l-0.57-0.12
		c-0.26-0.06-0.46-0.26-0.51-0.51l-0.16-0.78c-0.06-0.31-0.34-0.54-0.66-0.54l-2.86-0.05c-0.55-0.01-1.1-0.15-1.58-0.41l-1.75-0.95
		c-0.63-0.34-1.12-0.88-1.4-1.52l-0.63-1.44c-0.14-0.32-0.41-0.56-0.75-0.66l-0.64-0.19c-0.64-0.19-1.04-0.8-0.97-1.44l0.17-1.5
		C47.04,104.11,47.2,103.82,47.43,103.62z"/>
	<path class="st15" d="M45.08,103.41c0.13-0.11,0.29-0.24,0.49-0.41c0.71-1.43,2.65,0.04,2.65,0.04s2.16-0.16,2.76,0.96
		c0.37,0.69,1.2,0.24,1.78-0.2c0.41-0.31,0.97-0.37,1.43-0.15l1.81,0.87c0.14,0.07,0.27,0.14,0.39,0.23l2.27,1.67
		c0.45,0.33,0.97,0.56,1.52,0.68l2.44,0.5c0.51,0.1,0.99,0.31,1.41,0.61l1.3,0.93l3.47,1.96c0.44,0.25,0.94,0.39,1.45,0.39
		l3.53,0.06c0.26,0,0.52-0.04,0.77-0.12l1.86-0.64l1.24-0.46c0.77-0.29,1.65-0.1,2.23,0.47l1.35,1.32c0.51,0.49,1.36,0.31,1.61-0.35
		l0.01-0.02c0.06-0.16,0.25-0.23,0.39-0.14c0.66,0.38,2.32,1.33,3.19,1.83c0.36,0.21,0.66,0.49,0.88,0.84l0.83,1.32
		c0.35,0.55,0.88,0.96,1.51,1.17l4.62,1.52c0.4,0.13,0.78,0.32,1.12,0.57l0.94,0.67l0.68,0.47c0.8,0.55,0.99,1.64,0.41,2.41
		l-0.44,0.59c-0.2,0.27-0.03,0.66,0.31,0.7l1.57,0.2c0.14,0.02,0.27,0.01,0.41-0.01l3.41-0.55c0.29-0.05,0.56-0.16,0.79-0.33
		l1.65-1.19c0.34-0.25,0.76-0.38,1.18-0.38l1.13,0c0.46,0,0.87-0.27,1.05-0.69v0c0.08-0.19,0.26-0.31,0.47-0.3l0.27,0.01
		c0.38,0.01,0.73,0.19,0.97,0.48l1.11,1.38c0.37,0.46,1.09,0.47,1.46,0.01l0.51-0.62c0.27-0.32,0.64-0.54,1.06-0.62l0.26-0.05
		c0.48-0.09,0.97,0.06,1.31,0.4l3.32,3.29c0.47,0.46,1.1,0.73,1.77,0.74l3.15,0.05c0.61,0.01,1.21,0.15,1.76,0.41l1.62,0.76
		c0.33,0.16,0.46,0.56,0.27,0.87l-1.25,2.07c-0.21,0.36-0.61,0.57-1.03,0.56l-0.65-0.01c-0.32-0.01-0.58,0.25-0.58,0.56l0,0.26
		c0,0.43,0.21,0.84,0.57,1.09l1.31,0.91c0.55,0.38,1.21,0.59,1.88,0.6l0.06,0c0.31,0,0.59,0.16,0.76,0.4l0.48,0.69
		c0.2,0.29,0.53,0.46,0.89,0.47l2.3,0.04l1.29,0.02c0.52,0.01,0.99,0.3,1.23,0.75l0.61,1.2c0.21,0.42,0.13,0.93-0.21,1.26l-1,0.99
		c-0.24,0.23-0.54,0.39-0.88,0.44l-0.36,0.06c-0.62,0.1-1.08,0.61-1.1,1.22c-0.03,0.66-0.06,1.23,0.11,1.4
		c0.12,0.12,1.14,0.43,1.81,0.63c0.39,0.11,0.71,0.37,0.9,0.72l0.61,1.12c0.23,0.42,0.61,0.74,1.07,0.9l1.85,0.64
		c0.45,0.16,0.81,0.49,1,0.92l1.03,2.34c0.1,0.23,0.02,0.5-0.2,0.63l-0.61,0.37c-0.32,0.19-0.52,0.52-0.56,0.88l0,0
		c-0.03,0.29-0.28,0.52-0.58,0.51l-2.01-0.03c-0.46-0.01-0.92-0.08-1.36-0.22l-0.7-0.22c-0.49-0.15-0.89-0.5-1.1-0.96l-0.09-0.2
		c-0.13-0.29-0.43-0.48-0.76-0.49l-1.68-0.03c-0.48-0.01-0.95,0.09-1.38,0.28l-0.53,0.23c-0.3,0.13-0.64,0.14-0.95,0.01l-1.58-0.65
		c-0.35-0.14-0.66-0.34-0.94-0.59l-0.19-0.18c-0.21-0.19-0.32-0.47-0.3-0.75l0.07-1.14c0.01-0.2-0.15-0.36-0.35-0.36l-0.84-0.01
		l-2-0.03c-0.2,0-0.37-0.14-0.42-0.33l-0.22-0.87c-0.06-0.25-0.29-0.42-0.54-0.42l-1.09-0.02c-0.3,0-0.6,0.07-0.87,0.21l-0.65,0.34
		c-0.23,0.12-0.44,0.27-0.62,0.46l-2.12,2.14c-0.16,0.16-0.36,0.26-0.59,0.29l-2.63,0.34c-0.22,0.03-0.33,0.28-0.2,0.46l0.24,0.33
		c0.14,0.19-0.04,0.45-0.27,0.39l-1.77-0.43c-0.09-0.02-0.18-0.04-0.27-0.04l-0.67-0.05c-0.3-0.02-0.6,0.11-0.77,0.35l0,0
		c-0.16,0.22-0.39,0.38-0.65,0.46l-1.18,0.35c-0.49,0.15-1.02,0.05-1.42-0.25l-0.47-0.35c-0.15-0.11-0.32-0.21-0.5-0.28l-0.97-0.38
		c-0.37-0.14-0.77-0.15-1.14-0.01l0,0c-0.2,0.07-0.4,0.13-0.61,0.16l-1.78,0.25c-0.04,0.01-0.09,0.01-0.13,0.02l-1.22,0.24
		c-0.46,0.09-0.9,0.29-1.27,0.57l-0.97,0.75c-0.54,0.41-1.2,0.63-1.89,0.62l-0.96-0.02c-0.39-0.01-0.76-0.16-1.04-0.43l-0.79-0.77
		c-0.1-0.09-0.18-0.2-0.25-0.32l-0.06-0.1c-0.19-0.33-0.54-0.53-0.92-0.54l-0.69-0.01c-0.38-0.01-0.73-0.18-0.96-0.46l-0.81-1
		c-0.22-0.28-0.33-0.63-0.3-0.98l0.01-0.1c0.03-0.33-0.12-0.65-0.39-0.84l-2.19-1.57c-0.41-0.3-0.87-0.53-1.35-0.7l-1.13-0.4
		c-0.21-0.07-0.31-0.3-0.23-0.51l0.22-0.53c0.12-0.28-0.11-0.57-0.42-0.54l-2.24,0.24c-0.33,0.04-0.61,0.27-0.69,0.58l-0.45,1.7
		c-0.08,0.31-0.4,0.5-0.72,0.42l-3.65-0.86l-2.92-1.38c-0.35-0.17-0.78-0.1-1.05,0.17c-0.41,0.39-0.99,0.91-1.3,0.95
		c-0.37,0.05-2.58-0.62-3.78-1c-0.44-0.14-0.68-0.59-0.54-1.02l0.83-2.58c0.12-0.36,0.46-0.6,0.84-0.59l0,0
		c0.35,0.01,0.67-0.17,0.85-0.47l0.57-0.97c0.31-0.52,0.39-1.14,0.23-1.71l-1.3-4.7l-1.45-4.96l-1.21-6.27
		c-0.06-0.3-0.27-0.54-0.57-0.65l-2.47-0.85c-0.76-0.26-1.37-0.81-1.7-1.53l-0.58-1.24c-0.21-0.44-0.61-0.77-1.1-0.87l-0.6-0.13
		c-0.27-0.06-0.48-0.27-0.53-0.53l-0.17-0.81c-0.07-0.32-0.36-0.56-0.69-0.57l-2.98-0.05c-0.58-0.01-1.14-0.16-1.65-0.43l-1.82-0.99
		c-0.65-0.36-1.17-0.91-1.46-1.59l-0.66-1.51c-0.14-0.33-0.43-0.58-0.78-0.69l-0.67-0.2c-0.66-0.2-1.09-0.83-1.01-1.5l0.17-1.56
		C44.68,103.92,44.84,103.62,45.08,103.41z"/>
</g>
<g>
	<path class="st16" d="M8.1,76.75c-0.85,1.54-0.19,3.22,1.23,4c-0.07-0.35-0.03-0.81,0.15-1.13c0.4-0.73,1.34-1,2.07-0.6
		c0.73,0.4,0.96,1.42,0.56,2.15s-1.4,1.39-2.82,0.61c-2.23-1.23-2.86-3.53-1.59-5.84c0.45-0.81,0.99-1.41,1.61-1.86l-8.07-4.44
		l-0.29,0.53l-0.53-0.29l1.56-2.84l31.25,17.19c5.31,2.92,5.86,8.55,3.67,12.53c-2.07,3.77-6.55,6.06-11.78,3.18
		c-3.28-1.81-5.13-6.04-3.25-9.45c1.09-1.99,3.37-3.06,5.44-1.92c1.62,0.89,2.29,2.95,1.33,4.69c-0.98,1.78-2.77,1.96-4.07,1.25
		c-0.73-0.4-1.32-1.15-1.43-2c-0.03-0.23,0.24-0.34,0.29-0.05c0.12,0.75,0.61,1.39,1.26,1.75c1.14,0.62,2.8,0.48,3.67-1.1
		c0.85-1.54,0.17-3.39-1.28-4.19c-1.78-0.98-3.87-0.07-4.87,1.75c-1.47,2.68-0.45,6.67,3.24,8.7c4.46,2.45,8.49,0.6,10.2-2.52
		c1.74-3.16,1.15-7.66-3.67-10.31L12.42,75.8C10.72,74.86,8.92,75.25,8.1,76.75z"/>
	<path class="st16" d="M22.87,64.07c2.25,1.62,2.36,4.39,0.66,6.75c-1.57,2.17-3.89,2.61-5.95,1.12c-1.2-0.87-1.18-2.16-0.66-2.87
		c0.49-0.67,1.48-0.87,2.16-0.38c0.67,0.49,0.83,1.46,0.34,2.13c-0.22,0.3-0.58,0.49-0.93,0.58c1.31,0.95,3.12,0.82,4.12-0.56
		c1.03-1.42,0.9-3.06-0.56-4.12c-1.65-1.19-3.02-0.64-4.8-0.15c-1.01,0.3-1.92,0.21-2.56-0.25c-0.53-0.38-0.9-1.05-1.04-1.95
		c0.92,0.38,2.45-0.23,3.36-0.54C18.99,63.21,21,62.72,22.87,64.07z"/>
	<path class="st16" d="M24.6,57.48l4.74,4.75l0.43-0.43l0.42,0.43l-2.29,2.29l-7.13-7.13c-1.99-2-2.81-4.12-3.63-7.17l-1.11-4.12
		c-0.16,0.16-0.29,0.36-0.46,0.52c-0.23,0.23-0.49,0.43-0.79,0.65c-3.66,2.81-8.05,2.48-11.02-0.5c-0.26-0.26-0.52-0.52-0.75-0.82
		c-1.67-2.19-1.76-5.23,0.23-7.23c1.5-1.5,3.7-1.21,5.13,0.23c1.05,1.05,1.01,2.91-0.3,4.22c-1.15,1.14-2.91,1.27-3.99,0.19
		c-0.16-0.16-0.3-0.36-0.43-0.56c-0.1-0.16,0.1-0.36,0.23-0.1c0.1,0.16,0.2,0.26,0.33,0.39c0.95,0.95,2.55,0.92,3.6-0.13
		c1.15-1.14,1.18-2.81,0.23-3.76c-1.27-1.28-3.24-1.54-4.55-0.23c-1.87,1.86-1.64,4.77-0.13,6.67c0.2,0.26,0.46,0.52,0.69,0.75
		c2.78,2.78,6.93,3.01,10.34,0.33c0.33-0.26,0.65-0.52,0.92-0.78c0.2-0.2,0.36-0.43,0.56-0.62L12.02,29.7
		c1.47,0.56,2.78,1.47,3.86,2.55c3.01,3.01,4.28,7.56,2.02,11.32l1.6,5.92c0.68,2.45,1.6,4.15,3.17,6.05
		c0.2-0.85,0.65-1.64,1.38-2.35c1.08-1.08,2.58-1.6,4.02-1.47c-0.1-1.47,0.39-2.94,1.51-4.05c2.39-2.39,5.4-2.06,7.36-0.09
		c1.41,1.41,1.86,3.04,2.16,3.66c0.16,0.36,0.39,0.65,0.65,0.92c0.33,0.33,0.72,0.59,1.27,0.69c-1.51,1.5-2.68,1.37-4.02,0.03
		c-0.75-0.75-1.31-2.81-2.55-4.06c-1.37-1.37-3.11-1.8-4.32-0.59c-1.02,1.01-1.02,2.65,0.03,3.7l4.74,4.75l0.43-0.42l0.43,0.43
		l-2.72,2.71l-0.42-0.43l0.43-0.42l-4.74-4.75c-1.05-1.05-2.71-1.02-3.7-0.03C23.59,54.76,23.55,56.43,24.6,57.48z M15.55,33.49
		c-0.23-0.23-0.46-0.46-0.72-0.65l2.77,9.85C19.02,39.71,18.23,36.18,15.55,33.49z"/>
	<path class="st16" d="M44.99,37.26c0.34-1.17,1.06-2.25,2.15-2.96c2.78-1.83,5.66-0.9,7.19,1.41c1.09,1.66,1.21,3.35,1.38,4.02
		c0.11,0.42,0.28,0.76,0.48,1.07c0.26,0.39,0.6,0.66,1.09,0.89c-1.78,1.17-2.9,0.8-3.95-0.78c-0.58-0.89-0.71-3.02-1.68-4.49
		c-1.07-1.62-2.64-2.41-4.07-1.47c-0.93,0.61-1.32,1.7-1.16,2.7c0.92,0.39,1.75,1.06,2.36,1.99c1.63,2.47,0.98,5.78-1.42,7.36
		c-2.43,1.6-5.73,0.89-7.35-1.58s-0.98-5.78,1.45-7.38C42.54,37.33,43.79,37.12,44.99,37.26z M41.14,42.35l2.14,3.25
		c0.79,1.2,2.42,1.57,3.65,0.75c1.2-0.79,1.53-2.39,0.71-3.63l-2.14-3.25c-0.81-1.24-2.42-1.57-3.61-0.78
		C40.66,39.51,40.33,41.11,41.14,42.35z"/>
	<path class="st16" d="M73,30.23l-2.51-6.27l-0.56,0.22l-0.21-0.52l3.01-1.2l3.74,9.36c1.05,2.62,1.03,4.82,0.56,8l-0.62,4.18
		c0.47-0.19,1.05-0.37,1.58-0.53c4.44-1.23,8.38,0.89,9.94,4.8c0.14,0.34,0.27,0.69,0.37,1.05c0.68,2.57-0.31,5.46-2.89,6.49
		c-1.8,0.72-3.92-0.08-4.62-1.84c-0.6-1.5-0.01-3.38,1.84-4.12c1.5-0.6,3.14-0.01,3.69,1.37c0.09,0.21,0.13,0.45,0.17,0.68
		c0.04,0.23-0.23,0.29-0.27,0.06c-0.03-0.19-0.05-0.38-0.12-0.55c-0.48-1.2-1.92-1.82-3.17-1.32c-1.68,0.67-2.37,2.29-1.8,3.71
		c0.64,1.59,2.44,2.36,4.2,1.66c2.32-0.93,3.18-3.76,2.56-6.06c-0.08-0.32-0.21-0.66-0.33-0.96c-1.46-3.65-5.27-5.71-9.37-4.38
		c-0.3,0.12-0.66,0.21-0.96,0.34c-0.34,0.14-0.63,0.3-0.93,0.42L73.67,60.7c-1.13-1.09-2.02-2.43-2.6-3.89
		c-1.56-3.91-0.9-8.61,2.66-11.18l0.8-6.1c0.34-2.53,0.18-4.41-0.47-6.79c-0.53,0.66-1.29,1.26-2.19,1.62
		c-1.46,0.58-3.01,0.45-4.34-0.26c-0.43,1.42-1.5,2.59-2.96,3.18c-3.09,1.24-5.73-0.25-6.76-2.83c-0.74-1.85-0.43-3.57-0.54-4.22
		c-0.07-0.42-0.12-0.8-0.26-1.14c-0.17-0.43-0.41-0.78-0.89-1.09c1.98-0.79,3.01-0.21,3.71,1.55c0.4,0.99,0.1,3.1,0.75,4.73
		c0.72,1.8,2.1,2.9,3.69,2.26c1.33-0.53,2-2.1,1.47-3.43l-2.51-6.27l-0.56,0.22l-0.21-0.52l3.57-1.43l0.21,0.52l-0.56,0.22
		l2.51,6.27c0.53,1.33,2.05,2.02,3.39,1.49C72.9,33.1,73.53,31.56,73,30.23z M71.92,55.82c0.12,0.3,0.24,0.6,0.4,0.88l1.33-10.15
		C71.18,48.74,70.51,52.29,71.92,55.82z"/>
	<path class="st16" d="M96.03,21.93l0.77,6.71l0.6-0.07l0.07,0.6l-3.82,0.44l-0.07-0.6l0.6-0.07l-0.77-6.71
		c-0.16-1.42-1.44-2.44-2.87-2.28c-1.42,0.16-2.44,1.44-2.28,2.87l0.77,6.71l0.6-0.07l0.07,0.6l-3.81,0.44l-0.07-0.6l0.6-0.07
		l-0.77-6.71c-0.16-1.42-1.49-2.44-2.92-2.27c-1.65,0.19-2.4,1.81-2.18,3.74c0.29,2.53,0.89,3.72,1.83,5.38l2.68,4.68
		c4.61,1.19,6.69,4.31,7.11,7.98c0.26,2.25-0.11,4.72-0.96,7.05L82.4,35c-0.66-0.06-1.35-0.03-2.04,0.05
		c-5.1,0.58-8.63,4.3-8.12,8.75c0.18,1.56,0.94,2.92,2.02,3.82c0.88,0.74,1.98,0.98,2.99,0.87c0.87-0.1,1.71-0.52,2.31-1.34
		c0.52-0.71,0.72-1.48,0.63-2.21c-0.17-1.47-1.38-2.68-3.17-2.48c-1.43,0.16-2.49,1.4-2.34,2.74l0.03,0.28
		c0.03,0.28-0.15,0.3-0.27,0.08c-0.06-0.13-0.08-0.27-0.09-0.41c-0.17-1.52,1.07-2.82,2.63-3c2.07-0.24,3.44,1.14,3.62,2.75
		c0.09,0.83-0.13,1.74-0.74,2.5c-0.69,0.92-1.61,1.4-2.57,1.51c-1.1,0.13-2.26-0.25-3.23-0.98c-1.38-1.05-2.11-2.6-2.29-4.16
		c-0.54-4.73,3.28-8.71,8.52-9.31c0.6-0.07,1.15-0.13,1.71-0.1l-1.86-3.19c-1.21-2.05-1.87-3.32-2.11-5.39
		c-0.32-2.8,1.3-5.32,4.61-5.7c1.56-0.18,3.02,0.35,4.11,1.34c0.84-1.21,2.14-2.06,3.7-2.24c1.56-0.18,3.02,0.35,4.11,1.34
		c0.79-1.21,2.14-2.06,3.7-2.24c3.31-0.38,5.46,1.7,5.78,4.5c0.22,1.93-0.44,3.5-0.59,4.17c-0.09,0.43-0.15,0.76-0.1,1.13
		c0.05,0.46,0.24,0.9,0.62,1.37c-2.11,0.24-2.95-0.59-3.17-2.48c-0.13-1.1,0.72-3.06,0.53-4.76c-0.22-1.93-1.27-3.35-2.97-3.15
		C96.93,19.22,95.87,20.51,96.03,21.93z M90.54,42.3c-0.36-3.12-2.19-5.66-4.95-6.6l4.93,8.89C90.63,43.83,90.63,43.04,90.54,42.3z"
		/>
	<path class="st16" d="M110.88,22.18l-0.75,6.71l0.6,0.07l-0.06,0.55l-3.22-0.36l0.59-5.29c0.33-2.94,2.71-5.1,5.79-4.75
		c3.13,0.35,4.98,2.88,4.67,5.69c-0.21,1.93-1.21,3.31-1.51,3.93c-0.18,0.4-0.32,0.76-0.35,1.08c-0.05,0.46,0.04,0.94,0.3,1.48
		c-2.12-0.24-2.75-1.24-2.54-3.12c0.12-1.1,1.39-2.82,1.58-4.52c0.22-1.93-0.53-3.6-2.23-3.79
		C112.32,19.69,111.04,20.76,110.88,22.18z"/>
	<path class="st16" d="M144.23,27.6c1.39,0.73,2.29,1.99,2.64,3.43c1.38-0.53,2.93-0.5,4.32,0.24c2.95,1.55,3.55,4.48,2.23,6.98
		c-0.91,1.72-2.33,2.64-2.84,3.11c-0.32,0.3-0.55,0.65-0.72,0.98c-0.22,0.41-0.33,0.82-0.26,1.38c-1.84-0.97-2.11-2.16-1.22-3.83
		c0.52-0.98,2.32-2.12,3.12-3.64c0.91-1.72,0.84-3.48-0.67-4.28c-1.27-0.67-2.87-0.21-3.54,1.06L144.13,39l0.53,0.28l-0.28,0.53
		l-3.4-1.79l0.28-0.53l0.53,0.28l3.15-5.98c0.67-1.27,0.18-2.83-1.08-3.5c-1.27-0.67-2.83-0.19-3.5,1.08l-0.41,0.78
		c-0.95,1.8-1.36,3.57-1.52,5.47l-1.44,17.81c-0.26,3.47-0.74,5.68-1.56,7.23c-0.41,0.78-0.88,1.37-1.45,1.85l1.93-27.17
		c0.17-2.31,0.29-3.72,1.24-5.52C138.51,27.25,141.53,26.17,144.23,27.6z"/>
	<path class="st16" d="M159.22,47.88c0.76,1.63,0.53,3.53-0.78,5.15l-7.64,9.41c-4.29,5.28-10.63,4.72-14.65,1.45
		c-3.81-3.09-5.5-8.64-1.27-13.84c2.36-2.91,6.86-3.97,9.87-1.51c1.8,1.46,2.35,3.93,0.83,5.8c-1.11,1.36-3.26,1.59-4.76,0.36
		c-1.54-1.25-1.44-3.07-0.5-4.22c0.53-0.65,1.33-1.12,2.23-1.05c0.23,0.01,0.29,0.3,0,0.3c-0.76-0.02-1.48,0.35-1.94,0.92
		c-0.85,1.04-0.97,2.67,0.43,3.8c1.33,1.08,3.25,0.85,4.24-0.37c1.37-1.69,0.91-3.91-0.74-5.25c-2.37-1.92-6.48-1.63-9.14,1.64
		c-3.71,4.56-2.37,9.52,0.9,12.17c3.3,2.68,8.53,3,12.47-1.85l8.2-10.09c0.73-0.9,1.05-1.95,0.82-2.85
		c-0.92-0.04-2.08-0.08-2.72,0.41c-0.07-0.95,0.09-1.65,0.5-2.16c0.5-0.61,1.35-0.93,2.41-0.91c1.84,0.01,3.31,0.18,4.59-1.4
		c1.14-1.4,0.84-3.01-0.53-4.12c-1.33-1.08-3.1-0.73-4.12,0.53c0.36,0,0.76,0.08,1.05,0.32c0.68,0.55,0.75,1.5,0.22,2.15
		s-1.54,0.72-2.18,0.19c-0.65-0.53-1.04-1.8-0.11-2.95c1.6-1.97,4.02-2.16,6.06-0.5c2.26,1.84,2.87,4.54,1.09,6.73
		C162.75,47.72,161.03,47.93,159.22,47.88z"/>
	<path class="st16" d="M169.51,49.93l-4.99,4.55l0.41,0.44l-0.41,0.37l-2.18-2.39l3.93-3.58c2.19-1.99,5.4-2.04,7.49,0.25
		c2.12,2.33,1.84,5.46-0.24,7.36c-1.44,1.31-3.09,1.69-3.73,1.96c-0.4,0.18-0.74,0.36-0.98,0.58c-0.34,0.31-0.59,0.73-0.75,1.31
		c-1.43-1.57-1.25-2.74,0.16-4.02c0.82-0.75,2.91-1.21,4.17-2.36c1.44-1.31,1.98-3.05,0.82-4.32
		C172.24,49.01,170.57,48.96,169.51,49.93z"/>
	<path class="st16" d="M181.4,68.82c-2.48,1.62-5.78,0.96-7.35-1.44c-1.59-2.44-0.87-5.73,1.61-7.35l12.78-8.35
		c1.82-1.19,3.43-0.25,4.69,1.69l1.95,2.98c0.71,1.08,1.65,0.91,2.38,0.43c-0.41-0.12-0.73-0.35-0.93-0.66
		c-0.38-0.58-0.33-1.44,0.44-1.95c0.78-0.51,1.68-0.22,2.16,0.52c0.66,1.01,0.11,2.19-0.86,2.83c-1.12,0.73-2.8,0.78-3.82-0.77
		l-1.82-2.79c-0.61-0.93-1.29-1.04-2.1-0.51l-9.53,6.22c0.78,0.43,1.49,1.02,2.02,1.83C184.6,63.91,183.88,67.2,181.4,68.82z
		 M178.76,61.15l-3.29,2.15c-1.2,0.78-1.58,2.41-0.77,3.65c0.78,1.2,2.42,1.51,3.62,0.73l3.29-2.15c1.2-0.78,1.54-2.38,0.75-3.59
		C181.56,60.7,179.96,60.36,178.76,61.15z"/>
	<path class="st16" d="M186.14,73.65l-6.24,2.47l0.22,0.56l-0.56,0.22l-1.19-3.01l4.99-1.98c2.75-1.09,5.77,0,6.91,2.89
		c0.58,1.46,0.44,3.01-0.23,4.32c1.39,0.49,2.55,1.53,3.12,2.99c1.23,3.1-0.27,5.73-2.85,6.75c-1.85,0.73-3.55,0.46-4.22,0.53
		c-0.38,0.05-0.76,0.1-1.1,0.24c-0.43,0.17-0.83,0.43-1.14,0.9c-0.77-1.94-0.2-3.01,1.57-3.71c0.99-0.39,3.1-0.08,4.74-0.73
		c1.81-0.71,2.9-2.09,2.27-3.69c-0.53-1.33-2.05-2.03-3.42-1.48l-6.24,2.47l0.22,0.56l-0.56,0.22l-1.41-3.57l0.56-0.22l0.22,0.56
		l6.24-2.47c1.38-0.55,2.03-2.05,1.5-3.38C189.02,73.75,187.51,73.1,186.14,73.65z"/>
</g>
</svg>
